<svg width="321" height="219" viewBox="0 0 321 219" fill="none" xmlns="http://www.w3.org/2000/svg">
<path d="M133.51 103.606L141.071 114.122C142.582 116.223 147.067 116.181 146.36 113.692C146.218 113.191 146.152 113.123 146.022 112.619L142.299 98.26C141.804 96.3487 142.358 94.3179 143.755 92.9232C144.066 92.6137 144.409 92.3481 144.771 92.1007C148.637 89.4549 157.035 81.3308 160.923 77.4214C166.187 72.1196 174.808 72.3968 179.003 78.5785C186.703 89.9229 193.686 103.447 197.739 112.13C198.516 113.794 200.831 113.973 201.836 112.437C202.197 111.885 202.306 111.205 202.134 110.568L188.625 60.474C187.261 55.4177 188.633 50.0164 192.245 46.224L200.316 37.7483C209.175 26.8065 209.575 21.8367 208.667 20.7195C206.198 17.8935 197.049 24.0709 192.783 27.5129L182.977 37.073C179.255 40.7021 173.919 42.1451 168.875 40.8867L117.822 28.1502C117.124 27.976 116.385 28.1224 115.806 28.5496C114.334 29.6351 114.557 31.8994 116.213 32.6763L130.88 39.5597C141.262 45.52 148.198 50.2264 152.675 53.7264C157.542 57.5313 156.654 63.489 152.353 67.9239C148.389 72.0112 144.271 76.7233 140.805 80.8743C136.961 85.4766 130.838 87.5902 125.033 86.0903L117.285 84.0887C116.909 83.9917 116.526 83.8193 116.144 83.7486C113.272 83.2164 113.821 87.7487 116.161 89.4969L126.365 97.1189C127.244 97.7758 127.526 98.9685 127.035 99.9499C126.077 101.86 128.054 103.913 129.999 103.028L130.495 102.803C131.563 102.317 132.825 102.653 133.51 103.606Z" fill="white"/>
<path d="M48.1154 187L38.8789 154.273H45.255L51.1516 178.323H51.4553L57.7514 154.273H63.5522L69.8643 178.339H70.152L76.0487 154.273H82.4247L73.1882 187H67.3395L60.7876 164.037H60.532L53.9641 187H48.1154ZM90.8382 187.495C89.2828 187.495 87.8819 187.218 86.6355 186.664C85.3997 186.1 84.4196 185.269 83.6951 184.172C82.9814 183.074 82.6245 181.721 82.6245 180.113C82.6245 178.728 82.8801 177.582 83.3915 176.677C83.9029 175.771 84.6007 175.047 85.4849 174.504C86.3691 173.96 87.3652 173.55 88.4732 173.273C89.5918 172.985 90.7477 172.778 91.9409 172.65C93.3791 172.501 94.5456 172.368 95.4405 172.25C96.3354 172.123 96.9853 171.931 97.3901 171.675C97.8056 171.409 98.0133 170.999 98.0133 170.445V170.349C98.0133 169.145 97.6564 168.213 96.9426 167.552C96.2289 166.892 95.2008 166.561 93.8585 166.561C92.4416 166.561 91.3176 166.87 90.4867 167.488C89.6664 168.106 89.1124 168.836 88.8248 169.678L83.4235 168.911C83.8496 167.419 84.5527 166.173 85.5328 165.171C86.513 164.159 87.7115 163.403 89.1284 162.902C90.5453 162.391 92.1113 162.135 93.8265 162.135C95.0091 162.135 96.1863 162.273 97.3581 162.55C98.53 162.827 99.6007 163.286 100.57 163.925C101.54 164.553 102.317 165.411 102.903 166.498C103.5 167.584 103.798 168.942 103.798 170.572V187H98.237V183.628H98.0453C97.6937 184.31 97.1983 184.949 96.5591 185.546C95.9306 186.132 95.1369 186.606 94.1781 186.968C93.2299 187.32 92.1167 187.495 90.8382 187.495ZM92.3404 183.245C93.5016 183.245 94.5083 183.016 95.3606 182.558C96.2129 182.089 96.8681 181.471 97.3262 180.704C97.7949 179.937 98.0293 179.1 98.0293 178.195V175.303C97.8482 175.452 97.5392 175.59 97.1025 175.718C96.6763 175.846 96.1969 175.958 95.6642 176.054C95.1316 176.15 94.6042 176.235 94.0822 176.309C93.5602 176.384 93.1074 176.448 92.7239 176.501C91.861 176.618 91.0886 176.81 90.4068 177.076C89.725 177.343 89.187 177.716 88.7928 178.195C88.3986 178.664 88.2015 179.271 88.2015 180.017C88.2015 181.082 88.5904 181.886 89.3681 182.43C90.1458 182.973 91.1365 183.245 92.3404 183.245ZM115.4 172.618V187H109.615V162.455H115.144V166.625H115.432C115.996 165.251 116.896 164.159 118.132 163.349C119.379 162.54 120.918 162.135 122.751 162.135C124.444 162.135 125.92 162.497 127.177 163.222C128.445 163.946 129.425 164.995 130.117 166.37C130.82 167.744 131.167 169.411 131.156 171.371V187H125.371V172.266C125.371 170.626 124.945 169.342 124.093 168.415C123.251 167.488 122.085 167.025 120.593 167.025C119.581 167.025 118.681 167.249 117.893 167.696C117.115 168.133 116.502 168.767 116.055 169.598C115.618 170.429 115.4 171.435 115.4 172.618ZM142.822 172.618V187H137.037V162.455H142.566V166.625H142.854C143.418 165.251 144.318 164.159 145.554 163.349C146.801 162.54 148.34 162.135 150.172 162.135C151.866 162.135 153.342 162.497 154.599 163.222C155.867 163.946 156.847 164.995 157.539 166.37C158.242 167.744 158.589 169.411 158.578 171.371V187H152.793V172.266C152.793 170.626 152.367 169.342 151.515 168.415C150.673 167.488 149.507 167.025 148.015 167.025C147.003 167.025 146.103 167.249 145.314 167.696C144.537 168.133 143.924 168.767 143.477 169.598C143.04 170.429 142.822 171.435 142.822 172.618ZM171.522 187.495C169.966 187.495 168.566 187.218 167.319 186.664C166.083 186.1 165.103 185.269 164.379 184.172C163.665 183.074 163.308 181.721 163.308 180.113C163.308 178.728 163.564 177.582 164.075 176.677C164.586 175.771 165.284 175.047 166.169 174.504C167.053 173.96 168.049 173.55 169.157 173.273C170.275 172.985 171.431 172.778 172.624 172.65C174.063 172.501 175.229 172.368 176.124 172.25C177.019 172.123 177.669 171.931 178.074 171.675C178.489 171.409 178.697 170.999 178.697 170.445V170.349C178.697 169.145 178.34 168.213 177.626 167.552C176.912 166.892 175.884 166.561 174.542 166.561C173.125 166.561 172.001 166.87 171.17 167.488C170.35 168.106 169.796 168.836 169.508 169.678L164.107 168.911C164.533 167.419 165.236 166.173 166.216 165.171C167.197 164.159 168.395 163.403 169.812 162.902C171.229 162.391 172.795 162.135 174.51 162.135C175.693 162.135 176.87 162.273 178.042 162.55C179.214 162.827 180.284 163.286 181.254 163.925C182.223 164.553 183.001 165.411 183.587 166.498C184.183 167.584 184.482 168.942 184.482 170.572V187H178.921V183.628H178.729C178.377 184.31 177.882 184.949 177.243 185.546C176.614 186.132 175.82 186.606 174.862 186.968C173.914 187.32 172.8 187.495 171.522 187.495ZM173.024 183.245C174.185 183.245 175.192 183.016 176.044 182.558C176.896 182.089 177.552 181.471 178.01 180.704C178.479 179.937 178.713 179.1 178.713 178.195V175.303C178.532 175.452 178.223 175.59 177.786 175.718C177.36 175.846 176.881 175.958 176.348 176.054C175.815 176.15 175.288 176.235 174.766 176.309C174.244 176.384 173.791 176.448 173.407 176.501C172.545 176.618 171.772 176.81 171.09 177.076C170.409 177.343 169.871 177.716 169.476 178.195C169.082 178.664 168.885 179.271 168.885 180.017C168.885 181.082 169.274 181.886 170.052 182.43C170.829 182.973 171.82 183.245 173.024 183.245ZM200.278 159.243V154.273H226.39V159.243H216.274V187H210.393V159.243H200.278ZM228.619 187V162.455H234.228V166.545H234.483C234.931 165.129 235.698 164.037 236.785 163.27C237.882 162.492 239.134 162.103 240.54 162.103C240.86 162.103 241.216 162.119 241.611 162.151C242.015 162.172 242.351 162.21 242.617 162.263V167.584C242.372 167.499 241.983 167.424 241.451 167.36C240.929 167.286 240.423 167.249 239.933 167.249C238.878 167.249 237.93 167.478 237.088 167.936C236.257 168.383 235.602 169.006 235.123 169.805C234.643 170.604 234.404 171.526 234.404 172.57V187H228.619ZM246.461 187V162.455H252.245V187H246.461ZM249.369 158.971C248.453 158.971 247.664 158.667 247.004 158.06C246.343 157.442 246.013 156.702 246.013 155.839C246.013 154.965 246.343 154.225 247.004 153.618C247.664 153 248.453 152.691 249.369 152.691C250.296 152.691 251.084 153 251.734 153.618C252.395 154.225 252.725 154.965 252.725 155.839C252.725 156.702 252.395 157.442 251.734 158.06C251.084 158.667 250.296 158.971 249.369 158.971ZM258.194 196.205V162.455H263.883V166.513H264.218C264.517 165.917 264.938 165.283 265.481 164.612C266.024 163.93 266.759 163.349 267.686 162.87C268.613 162.38 269.796 162.135 271.234 162.135C273.13 162.135 274.84 162.62 276.363 163.589C277.897 164.548 279.112 165.97 280.007 167.856C280.912 169.731 281.365 172.032 281.365 174.759C281.365 177.455 280.923 179.745 280.039 181.631C279.155 183.516 277.951 184.955 276.427 185.945C274.904 186.936 273.178 187.431 271.25 187.431C269.843 187.431 268.677 187.197 267.75 186.728C266.823 186.26 266.078 185.695 265.513 185.034C264.959 184.363 264.527 183.729 264.218 183.133H263.979V196.205H258.194ZM263.867 174.727C263.867 176.315 264.091 177.705 264.538 178.898C264.996 180.091 265.651 181.023 266.504 181.695C267.367 182.355 268.411 182.685 269.636 182.685C270.914 182.685 271.985 182.344 272.848 181.663C273.711 180.97 274.361 180.027 274.797 178.834C275.245 177.63 275.468 176.261 275.468 174.727C275.468 173.204 275.25 171.851 274.813 170.668C274.377 169.486 273.727 168.559 272.864 167.888C272.001 167.217 270.925 166.881 269.636 166.881C268.4 166.881 267.351 167.206 266.488 167.856C265.625 168.506 264.97 169.417 264.522 170.588C264.085 171.76 263.867 173.14 263.867 174.727Z" fill="white"/>
</svg>
