<svg width="87" height="83" viewBox="0 0 87 83" fill="none" xmlns="http://www.w3.org/2000/svg">
<path d="M39.1709 2.54276L30.0017 1.04397C28.1699 0.744559 25.9167 3.04058 27.5377 3.94469C27.864 4.12666 27.9316 4.12801 28.2536 4.31743L37.4242 9.71207C38.6449 10.4301 39.3939 11.7412 39.3924 13.1574C39.392 13.4717 39.3526 13.7806 39.2947 14.0895C38.6755 17.3925 38.5368 25.7721 38.5473 29.7273C38.5666 35.0859 34.0536 39.3178 28.7904 38.3104C19.1315 36.4617 8.73095 33.1442 2.27058 30.7959C1.03283 30.346 -0.231987 31.4293 0.0372915 32.7185C0.134009 33.1815 0.423829 33.5812 0.83386 33.8171L31.0262 51.1838C35.5656 53.795 38.4147 58.5846 38.5426 63.8199L38.6894 69.8288C39.7459 79.8715 42.064 82.5947 43.0909 82.7009C45.7765 82.8821 47.2838 75.1085 47.7018 71.1991L47.7963 63.7413C47.8621 58.5431 50.6148 53.7496 55.0713 51.0727L85.3977 32.8566C85.8401 32.5909 86.1409 32.1416 86.218 31.6312C86.4139 30.3342 85.1521 29.2991 83.9184 29.7447L72.9884 33.6924C66.4807 35.4534 61.4427 36.5287 57.62 37.1495C51.522 38.1396 47.8706 33.4749 47.6315 27.3017C47.5442 25.048 47.4013 22.7484 47.2326 20.5575C46.7721 14.5791 49.5953 8.75289 54.761 5.70833L57.2986 4.21269C57.5384 4.07134 57.8203 3.96431 58.0497 3.80663C59.7764 2.61974 57.1992 0.599496 55.1256 0.899784L46.0848 2.20899C45.3056 2.32183 44.5575 1.86006 44.3092 1.11292C43.8257 -0.341529 41.7825 -0.380154 41.2444 1.05498L41.1071 1.42121C40.8117 2.20895 40.0012 2.67847 39.1709 2.54276Z" fill="white"/>
</svg>
