<svg width="267" height="267" viewBox="0 0 267 267" fill="none" xmlns="http://www.w3.org/2000/svg">
    <rect width="267" height="267" fill="#3288FF" />
    <path
        d="M77.454 199.935L100.39 232C106.025 227.362 105.868 223.909 105.086 222.762L95.6944 186.349L101.112 180.915C108.192 176.567 126.216 159.055 134.342 150.843L153.666 131.278C177.65 158.379 201.946 207.061 211.097 228.015L216.876 219.138L185.091 100.663L212.722 71.4966C230.348 49.613 231.143 39.6734 229.337 37.439C224.425 31.787 206.221 44.1418 197.732 51.0257L166.308 81.8222L46.3911 51.7503L38.0836 57.9096L74.5644 75.1194C117.764 100.046 130.971 114.007 132.175 117.872C115.994 130.915 91.9621 160.142 81.969 173.125L46.3911 163.885C42.6347 162.001 38.5652 166.361 37 168.777L68.6047 192.508L61.2002 207.363L77.454 199.935Z"
        fill="white" />
</svg>